<svg xmlns="http://www.w3.org/2000/svg" width="512" height="512" viewBox="0 0 512 512">
<g>
<path d="M 424.32 158.80 C424.66,166.32 424.61,172.77 424.22,173.13 C423.40,173.89 397.00,161.53 397.00,160.39 C397.00,159.98 398.46,158.43 400.25,156.94 L 403.49 154.23 L 396.50 147.47 C389.23,140.46 377.27,132.00 374.63,132.00 C373.75,132.00 371.51,135.08 369.35,139.25 C364.69,148.25 354.41,158.75 346.24,162.88 C329.25,171.45 312.85,171.61 296.00,163.35 C282.80,156.88 271.13,143.20 266.98,129.33 C265.84,125.53 265.92,124.92 267.87,122.44 C270.82,118.68 270.62,114.48 267.33,111.43 C264.70,108.99 264.67,108.85 265.81,102.73 C269.09,84.95 283.75,68.25 302.00,61.48 C308.95,58.91 328.14,58.32 335.59,60.46 C350.14,64.64 363.04,75.21 369.43,88.19 C373.16,95.77 375.95,106.56 375.98,113.50 C376.00,117.26 376.29,117.65 380.75,119.96 C389.76,124.61 397.53,130.36 406.19,138.79 L 414.88 147.24 L 418.54 144.98 C421.24,143.30 422.40,143.03 422.95,143.92 C423.36,144.58 423.98,151.28 424.32,158.80 ZM 143.00 155.85 C131.73,155.96 120.23,156.30 117.45,156.61 C113.87,157.02 112.07,156.79 111.28,155.84 C110.46,154.85 110.75,149.50 112.39,135.28 C113.61,124.70 114.84,115.83 115.11,115.55 C115.39,115.28 126.95,114.74 140.81,114.37 L 166.00 113.68 L 166.00 134.23 C166.00,149.78 165.70,154.89 164.75,155.22 C164.06,155.45 154.27,155.74 143.00,155.85 ZM 71.79 155.09 C68.42,157.47 66.42,157.52 65.52,155.25 C59.68,140.44 54.00,123.14 54.00,120.16 C54.00,115.67 54.24,115.42 72.80,100.61 C81.70,93.51 86.93,90.00 88.60,90.00 C90.82,90.00 91.75,91.39 96.87,102.25 C106.94,123.65 107.51,125.35 106.16,129.87 C105.23,132.97 103.87,134.50 99.74,137.11 C86.14,145.70 74.25,153.35 71.79,155.09 ZM 389.13 107.66 C389.71,112.37 389.80,116.58 389.34,117.02 C387.61,118.65 384.00,114.87 384.00,111.44 C384.00,104.76 380.89,93.29 376.84,85.03 C368.99,69.02 353.76,56.85 336.00,52.39 C326.41,49.98 307.85,50.89 298.88,54.21 C289.51,57.67 283.85,61.23 276.17,68.48 C267.61,76.56 261.67,86.78 258.81,98.35 C257.08,105.37 256.32,107.00 254.81,107.00 C253.78,107.00 252.67,106.30 252.34,105.45 C250.55,100.77 257.76,81.97 265.06,72.30 C273.65,60.93 290.39,50.14 304.50,46.88 C318.36,43.69 338.75,45.83 350.50,51.73 C372.68,62.86 386.01,82.16 389.13,107.66 ZM 331.82 181.96 C302.55,186.71 272.23,171.19 258.94,144.64 L 254.93 136.63 L 256.94 134.62 C258.04,133.51 259.09,132.81 259.26,133.06 C259.43,133.30 261.35,137.08 263.52,141.45 C270.49,155.47 283.36,167.21 298.27,173.15 C306.20,176.32 307.00,176.44 320.50,176.42 C333.35,176.41 335.07,176.19 341.37,173.71 C355.63,168.09 365.30,160.33 373.58,147.88 C376.10,144.09 378.51,141.00 378.95,141.00 C379.39,141.00 380.34,141.71 381.06,142.58 C382.92,144.81 379.24,151.33 371.19,160.07 C360.64,171.53 346.03,179.65 331.82,181.96 Z" fill="rgb(7,149,245)"/>
<path d="M 172.80 290.80 C169.93,293.67 156.93,291.16 145.50,285.54 C128.31,277.08 116.92,260.61 114.00,239.98 C110.75,217.09 123.39,192.88 144.02,182.49 C154.35,177.28 156.00,176.86 168.49,176.13 L 179.48 175.50 L 184.99 165.24 C188.02,159.60 192.52,152.45 195.00,149.36 C203.52,138.70 216.76,128.17 230.00,121.52 C237.90,117.56 237.97,117.47 236.83,113.36 C236.30,111.41 236.10,109.57 236.40,109.27 C236.70,108.97 239.77,109.50 243.22,110.45 C258.70,114.70 263.00,116.25 263.00,117.58 C263.00,119.02 245.30,138.00 243.97,138.00 C243.56,138.00 242.93,136.43 242.57,134.50 C241.71,129.91 239.54,129.93 231.60,134.55 C214.66,144.42 202.28,156.98 194.77,171.93 C191.60,178.24 191.80,178.70 199.29,182.32 C205.40,185.28 215.09,194.25 220.45,201.92 C230.68,216.55 232.77,237.39 225.74,254.78 C220.57,267.58 210.05,279.06 197.44,285.66 L 192.14 288.44 L 187.97 286.22 C181.57,282.80 174.00,283.68 174.00,287.84 C174.00,288.81 173.46,290.14 172.80,290.80 ZM 165.81 113.69 L 140.81 114.37 C126.95,114.74 115.39,115.28 115.11,115.55 C115.10,115.56 115.09,115.58 115.08,115.61 C115.23,114.59 115.37,113.55 115.52,112.50 C115.83,110.30 116.99,101.13 118.08,92.11 C119.18,83.10 120.51,74.92 121.04,73.93 C122.42,71.35 126.31,70.39 145.00,68.00 C160.20,66.07 162.53,65.93 164.00,66.92 C165.29,67.78 165.54,74.06 165.79,111.13 C165.80,111.99 165.80,112.85 165.81,113.69 ZM 212.94 296.89 C212.73,297.02 212.53,297.15 212.34,297.26 C210.60,298.33 209.74,298.86 208.94,298.79 C208.08,298.71 207.27,297.96 205.50,296.46 C202.65,294.06 202.60,293.87 204.39,292.72 C205.43,292.05 209.37,289.07 213.16,286.09 C222.61,278.67 227.38,272.09 235.11,255.84 C235.55,254.93 236.66,250.45 237.58,245.89 C242.80,220.16 231.00,192.25 208.75,177.66 C202.79,173.75 201.90,171.88 204.41,168.45 C205.81,166.55 205.89,166.55 210.19,168.64 C215.98,171.45 226.83,180.80 231.84,187.30 C237.48,194.61 242.93,206.09 245.13,215.30 C247.28,224.30 247.61,239.54 245.85,248.58 C242.29,266.81 228.09,287.66 212.94,296.89 ZM 108.75 208.49 C108.64,208.67 108.52,208.85 108.42,209.02 C106.72,211.72 105.82,213.15 105.38,213.02 C104.89,212.88 104.99,210.77 105.19,206.29 C105.20,206.04 105.21,205.77 105.23,205.50 C105.75,193.76 107.35,190.56 117.96,180.00 C128.05,169.95 139.27,163.33 151.50,160.18 C160.19,157.94 162.10,157.73 172.25,157.89 C178.58,157.99 179.00,158.14 179.00,160.28 C179.00,161.53 178.34,163.49 177.54,164.64 C176.27,166.45 174.75,166.80 166.29,167.24 C151.11,168.03 136.53,174.20 124.79,184.81 C121.03,188.21 113.05,199.39 111.05,204.07 C110.47,205.41 109.44,207.39 108.75,208.49 ZM 165.00 154.99 C165.10,154.83 165.19,154.60 165.27,154.29 C165.21,154.69 165.14,154.91 165.07,154.96 C165.05,154.97 165.03,154.98 165.00,154.99 Z" fill="rgb(4,232,247)"/>
<path d="M 79.00 241.07 C79.00,243.23 78.66,244.98 78.25,244.95 C77.84,244.92 75.43,243.23 72.90,241.20 C70.37,239.16 64.97,234.84 60.90,231.60 C56.83,228.35 52.33,224.61 50.89,223.29 L 48.28 220.90 L 54.52 209.04 C62.03,194.76 68.18,184.95 69.38,185.32 C69.87,185.47 73.75,194.95 78.00,206.38 L 85.74 227.18 L 83.26 229.84 C80.10,233.23 79.00,236.13 79.00,241.07 Z" fill="rgb(17,189,85)"/>
<path d="M 71.79 155.09 C74.25,153.35 86.14,145.70 99.74,137.11 C103.87,134.50 105.23,132.97 106.16,129.87 C106.31,129.37 106.43,128.91 106.52,128.45 C106.46,129.95 106.26,131.60 106.01,133.75 C105.46,138.56 104.07,151.05 102.94,161.50 C101.80,171.95 100.43,181.40 99.90,182.50 C99.36,183.60 96.13,185.96 92.71,187.74 C83.93,192.33 81.35,193.15 80.25,191.70 C78.78,189.75 76.40,184.09 73.07,174.60 C71.35,169.70 69.35,164.30 68.61,162.60 C67.70,160.46 66.75,158.19 65.81,155.84 C66.81,157.49 68.74,157.24 71.79,155.09 ZM 143.00 155.85 C154.27,155.74 164.06,155.45 164.75,155.22 C164.84,155.18 164.93,155.11 165.00,154.99 C165.03,154.98 165.05,154.97 165.07,154.96 C165.14,154.91 165.21,154.69 165.27,154.29 C165.75,152.46 165.95,147.77 165.99,138.35 L 166.00 157.87 C160.74,157.96 158.04,158.50 151.50,160.18 C139.27,163.33 128.05,169.95 117.96,180.00 C109.79,188.13 106.96,191.90 105.85,198.56 C106.00,195.77 106.10,193.46 106.10,192.50 C106.10,189.67 108.73,166.33 111.41,144.33 C110.67,151.90 110.67,155.10 111.28,155.84 C112.07,156.79 113.87,157.02 117.45,156.61 C120.23,156.30 131.73,155.96 143.00,155.85 ZM 105.80 245.35 C105.35,248.37 103.63,248.34 101.36,245.27 C95.36,237.16 93.78,227.41 99.09,231.34 C101.37,233.02 106.14,243.00 105.80,245.35 ZM 165.81 113.69 C165.80,112.85 165.80,111.99 165.79,111.13 C165.63,87.38 165.47,76.27 165.04,71.13 C165.61,76.86 165.86,89.27 165.95,113.68 ZM 104.73 119.56 C103.24,115.87 100.77,110.54 96.87,102.25 C91.76,91.40 90.82,90.00 88.61,90.00 C90.83,90.00 91.75,91.34 96.64,101.75 C100.77,110.51 103.27,115.80 104.73,119.56 ZM 60.97 143.13 C57.06,132.35 54.00,122.56 54.00,120.16 C54.00,122.34 57.04,132.20 60.97,143.13 ZM 178.08 158.35 C178.90,158.66 179.00,159.23 179.00,160.28 C179.00,159.24 178.90,158.68 178.08,158.35 Z" fill="rgb(47,30,200)"/>
<path d="M 108.75 208.49 C109.44,207.39 110.47,205.41 111.05,204.07 C111.90,202.08 113.82,198.93 116.04,195.69 C111.54,202.70 106.04,216.38 106.01,220.75 C105.99,224.90 104.26,223.05 103.62,218.18 C102.99,213.46 104.08,199.44 106.00,187.50 C106.53,184.20 108.10,171.82 109.49,160.00 C110.20,153.96 110.91,148.05 111.60,142.42 C111.54,143.08 111.47,143.72 111.41,144.33 C108.73,166.33 106.10,189.67 106.10,192.50 C106.10,193.46 106.00,195.77 105.85,198.56 C105.52,200.55 105.35,202.80 105.23,205.50 C105.21,205.77 105.20,206.04 105.19,206.29 C104.99,210.77 104.89,212.88 105.38,213.02 C105.82,213.15 106.72,211.72 108.42,209.02 C108.52,208.85 108.64,208.67 108.75,208.49 ZM 119.75 190.60 C121.65,188.13 123.48,186.00 124.79,184.81 C126.87,182.93 129.04,181.19 131.28,179.60 C127.00,182.74 123.12,186.43 119.75,190.60 ZM 115.24 114.46 C115.36,113.65 115.47,112.86 115.58,112.09 C115.56,112.25 115.54,112.38 115.52,112.50 C115.43,113.16 115.34,113.81 115.24,114.46 Z" fill="rgb(76,206,224)"/>
<path d="M 283.25 461.54 C273.15,464.47 272.79,464.49 270.18,462.25 C268.23,460.57 268.13,459.25 267.82,430.86 C267.52,403.46 267.64,401.06 269.30,399.22 C270.99,397.35 289.04,386.56 289.40,387.20 C296.79,400.29 308.91,411.67 320.84,416.73 C327.86,419.71 338.55,421.97 345.75,421.98 C349.74,421.99 353.00,422.43 353.00,422.96 C353.00,424.26 341.05,433.77 332.44,439.31 C318.63,448.20 299.55,456.82 283.25,461.54 ZM 78.99 189.57 C79.46,190.51 79.88,191.22 80.25,191.70 C81.35,193.15 83.93,192.33 92.71,187.74 C96.13,185.96 99.36,183.60 99.90,182.50 C100.14,182.00 100.55,179.82 101.03,176.61 C98.64,198.14 97.19,214.37 97.53,216.98 C98.51,224.54 99.96,230.33 102.30,235.89 C101.15,233.77 99.94,231.97 99.09,231.34 C94.72,228.10 95.02,234.13 98.60,240.89 C98.05,239.97 97.57,239.11 97.18,238.34 C94.60,233.29 79.00,191.63 79.00,189.81 C79.00,189.73 79.00,189.65 78.99,189.57 ZM 105.80 245.35 C105.83,245.13 105.82,244.85 105.77,244.52 C106.20,245.78 106.54,246.91 106.73,247.75 C107.28,250.09 107.38,252.00 106.95,252.00 C106.38,252.00 104.12,249.18 101.81,245.85 C103.86,248.33 105.38,248.17 105.80,245.35 ZM 104.73 145.21 C105.27,140.31 105.74,136.11 106.01,133.75 C106.09,133.07 106.17,132.44 106.23,131.85 C106.05,134.63 105.64,137.95 105.08,142.34 C104.96,143.30 104.84,144.26 104.73,145.21 ZM 94.56 97.39 C95.70,99.65 97.11,102.61 98.93,106.50 C100.98,110.88 102.53,114.19 103.67,116.97 C102.15,113.42 99.90,108.67 96.64,101.75 C95.86,100.07 95.17,98.63 94.56,97.39 ZM 67.24 105.05 C68.90,103.72 70.77,102.23 72.87,100.56 C80.42,94.53 84.34,91.68 86.70,90.65 C84.11,91.96 79.50,95.27 72.80,100.61 C70.73,102.26 68.88,103.74 67.24,105.05 ZM 65.81 155.84 L 65.81 155.84 C66.75,158.19 67.70,160.46 68.61,162.60 C69.35,164.30 71.35,169.70 73.07,174.60 C74.51,178.70 75.77,182.09 76.86,184.78 C75.97,182.63 74.76,179.44 73.56,176.03 C71.54,170.27 69.30,164.19 68.58,162.53 C67.67,160.41 66.74,158.16 65.81,155.84 Z" fill="rgb(93,7,164)"/>
<path d="M 79.00 241.07 C79.00,236.13 80.10,233.23 83.26,229.84 L 85.74 227.18 L 78.00 206.38 C73.75,194.95 69.87,185.47 69.38,185.32 C68.18,184.95 62.03,194.76 54.52,209.04 L 48.28 220.90 L 50.89 223.29 C51.99,224.30 54.88,226.72 58.00,229.26 C57.68,229.01 57.37,228.75 57.05,228.50 C50.84,223.55 44.07,218.15 42.00,216.50 C39.93,214.85 34.96,211.02 30.96,208.00 C26.95,204.98 21.95,200.99 19.84,199.13 C14.11,194.11 14.45,190.80 22.66,171.31 C26.33,162.61 30.00,154.71 30.82,153.75 C34.02,150.00 38.61,151.43 51.69,160.25 C64.56,168.93 65.82,170.46 68.79,181.00 C69.94,185.08 85.69,226.83 89.24,235.20 C93.45,245.13 99.10,253.14 108.52,262.49 C113.55,267.49 117.67,272.35 117.67,273.29 C117.67,274.23 117.40,275.00 117.08,274.99 C115.33,274.98 110.01,271.21 98.54,261.90 C89.53,254.58 82.00,248.49 74.13,242.17 C76.17,243.74 77.91,244.92 78.25,244.95 C78.66,244.98 79.00,243.23 79.00,241.07 Z" fill="rgb(99,241,18)"/>
<path d="M 358.29 412.51 C352.01,414.15 339.74,414.32 333.50,412.86 C325.04,410.88 313.33,404.22 306.73,397.62 C300.09,390.98 293.44,379.46 292.34,372.72 L 291.79 369.29 L 280.64 368.69 C248.71,366.96 221.02,354.57 200.45,332.80 C192.95,324.86 187.35,317.31 188.28,316.39 C188.60,316.07 190.05,317.70 191.50,320.00 C194.33,324.48 215.50,346.00 217.08,346.00 C217.60,346.00 220.66,347.80 223.88,350.00 C227.11,352.20 230.31,354.00 231.00,354.00 C231.70,354.00 233.67,354.86 235.38,355.91 C240.24,358.88 259.11,364.77 267.54,365.94 C271.72,366.52 278.95,367.00 283.59,367.00 C284.20,367.00 284.76,367.00 285.28,367.00 C288.81,366.98 290.57,366.97 291.72,367.81 C293.03,368.77 293.54,370.85 294.96,375.32 C296.37,379.75 303.63,393.03 305.44,394.50 C306.12,395.05 308.40,396.85 310.51,398.50 C312.61,400.15 315.22,402.49 316.31,403.70 C317.39,404.91 319.68,406.20 321.39,406.56 C323.10,406.92 325.96,408.10 327.75,409.19 C330.30,410.74 333.45,411.28 342.25,411.67 C352.51,412.14 354.21,411.95 361.50,409.54 C370.30,406.63 376.07,403.26 379.75,398.88 C381.08,397.30 383.39,395.29 384.88,394.41 C387.36,392.94 391.53,386.02 395.36,377.00 C400.73,364.36 399.56,344.00 393.46,344.00 C392.64,344.00 391.08,342.54 389.99,340.75 C388.46,338.24 388.14,336.47 388.60,333.00 C389.12,329.00 388.84,328.06 386.01,324.50 C384.26,322.30 382.08,320.08 381.17,319.57 C380.25,319.06 379.05,318.14 378.50,317.52 C374.21,312.67 361.57,307.03 354.95,307.01 C353.55,307.00 351.87,306.47 351.23,305.83 C350.34,304.94 349.14,304.94 346.17,305.83 C344.02,306.47 340.07,307.00 337.38,307.00 C326.89,306.98 314.60,312.87 309.17,320.51 C307.82,322.40 305.88,324.22 304.86,324.54 C301.12,325.73 293.00,343.85 293.00,351.02 C293.00,352.54 292.21,354.67 291.25,355.77 C289.64,357.60 288.80,357.70 280.50,356.95 C267.12,355.75 260.48,354.43 250.50,350.98 C245.55,349.27 240.38,347.62 239.00,347.31 C237.62,346.99 235.67,346.02 234.66,345.14 C233.65,344.26 231.08,342.63 228.94,341.52 C222.40,338.12 205.10,323.05 203.69,319.53 C203.24,318.41 201.93,316.49 200.77,315.25 C199.61,314.02 199.01,312.67 199.44,312.25 C199.87,311.84 200.96,312.62 201.86,313.99 C202.76,315.35 205.73,318.95 208.46,321.99 C221.99,337.01 238.43,346.84 258.76,352.08 C267.20,354.25 287.10,356.56 289.50,355.64 C290.41,355.29 291.01,353.76 291.01,351.78 C291.03,346.61 296.36,332.65 300.41,327.12 C308.14,316.59 322.41,306.94 332.50,305.42 C355.12,302.00 370.59,306.40 384.38,320.18 L 391.27 327.06 L 390.65 332.33 C389.96,338.17 391.66,342.00 394.93,342.00 C397.78,342.00 398.75,343.94 399.84,351.77 C401.45,363.41 398.60,377.18 392.39,387.77 C385.93,398.80 371.93,408.96 358.29,412.51 ZM 283.77 347.50 C283.60,349.55 283.04,350.00 280.65,350.00 C277.77,350.00 277.74,349.94 278.34,345.53 C279.33,338.31 284.79,325.47 289.58,319.10 C296.55,309.84 305.11,302.53 314.26,298.05 C322.76,293.89 332.51,290.91 336.96,291.12 C338.99,291.21 339.10,291.32 337.50,291.69 C330.03,293.38 321.22,297.88 328.00,296.54 C329.92,296.16 336.67,295.51 343.00,295.10 C349.33,294.69 353.69,294.27 352.69,294.18 C351.70,294.08 351.14,293.59 351.45,293.08 C351.77,292.57 349.65,291.69 346.76,291.13 C341.83,290.16 342.01,290.13 349.50,290.63 C360.62,291.37 365.13,292.56 375.57,297.54 C385.16,302.12 395.00,309.95 395.00,313.01 C395.00,318.15 393.91,318.08 387.65,312.49 C367.91,294.87 341.34,291.37 317.00,303.19 C307.13,307.98 296.39,317.92 291.27,327.00 C287.96,332.87 284.11,343.39 283.77,347.50 ZM 374.70 420.95 C367.86,424.29 359.00,427.20 359.00,426.10 C359.00,425.71 359.56,424.18 360.25,422.70 C361.17,420.72 363.22,419.34 368.01,417.50 C371.60,416.13 376.18,413.88 378.21,412.50 C382.85,409.35 383.66,409.35 381.61,412.47 C380.10,414.78 380.11,414.90 381.75,414.28 C385.21,412.98 396.00,403.61 396.00,401.90 C396.00,400.95 396.56,399.97 397.25,399.72 C397.94,399.47 398.22,398.97 397.89,398.61 C397.23,397.89 393.00,401.84 389.08,406.83 C387.76,408.53 386.22,409.64 385.68,409.30 C385.08,408.93 385.01,409.24 385.49,410.10 C386.14,411.22 386.03,411.26 384.96,410.27 C383.88,409.26 384.83,407.80 390.15,402.27 C399.30,392.75 404.28,383.40 407.05,370.51 L 407.91 366.50 L 407.58 370.50 C407.40,372.70 406.46,377.10 405.48,380.27 C403.78,385.80 404.10,389.06 406.03,385.97 C407.74,383.23 412.00,368.89 412.00,365.87 C412.00,364.21 411.35,362.21 410.56,361.42 C409.32,360.17 409.07,360.41 408.72,363.24 C408.50,365.03 408.32,362.90 408.33,358.50 C408.33,354.10 408.51,352.16 408.73,354.20 C409.01,356.92 409.50,357.75 410.56,357.34 C412.29,356.68 412.39,353.45 410.88,347.44 C409.52,342.02 408.04,341.68 407.88,346.75 C407.76,350.48 407.76,350.49 407.00,347.50 C405.55,341.79 405.84,340.26 408.47,339.76 C412.13,339.06 413.42,343.94 413.40,358.50 C413.39,368.67 412.99,371.80 410.74,379.00 C404.95,397.54 392.16,412.42 374.70,420.95 ZM 232.81 465.51 C230.90,467.94 230.56,468.00 218.18,467.89 C201.04,467.73 186.45,465.36 167.50,459.66 C151.31,454.79 148.80,452.45 153.22,446.36 C159.30,437.97 182.01,409.27 183.93,407.55 C186.39,405.34 187.42,405.31 205.00,406.85 C214.06,407.64 220.90,407.64 229.86,406.85 C240.14,405.93 242.38,405.98 243.13,407.12 C244.16,408.69 243.50,415.15 241.49,423.09 L 240.11 428.50 L 240.76 421.50 C241.11,417.65 241.42,413.15 241.45,411.50 L 241.50 408.50 L 228.00 408.79 C220.57,408.95 208.20,408.66 200.50,408.15 L 186.50 407.22 L 181.75 412.20 C179.14,414.93 177.00,417.50 177.00,417.91 C177.00,418.31 175.59,420.18 173.88,422.07 C172.16,423.96 169.15,427.97 167.19,430.99 C165.24,434.01 162.88,437.16 161.97,437.99 C161.05,438.82 158.71,441.75 156.77,444.50 C153.98,448.45 153.42,449.97 154.09,451.75 C154.55,452.99 155.48,454.00 156.14,454.00 C156.80,454.00 160.20,455.14 163.68,456.54 C167.17,457.93 172.60,459.55 175.76,460.13 C178.92,460.71 181.95,461.54 182.50,461.98 C183.05,462.41 187.10,463.29 191.50,463.91 C195.90,464.54 201.98,465.50 205.00,466.03 C208.02,466.57 214.48,466.96 219.34,466.88 C224.46,466.80 227.59,466.82 229.75,465.39 C233.29,463.05 234.25,456.83 237.11,440.00 C237.71,436.42 238.60,432.83 239.07,432.00 C240.39,429.72 240.19,431.87 238.06,443.20 C236.99,448.86 235.81,455.64 235.44,458.26 C235.07,460.88 233.89,464.14 232.81,465.51 ZM 184.10 318.28 C180.95,320.14 179.37,320.43 178.68,319.25 C178.44,318.84 178.65,312.42 179.15,305.00 C180.13,290.42 180.21,289.12 180.62,289.01 C180.66,289.00 180.70,289.00 180.75,289.00 L 180.77 289.00 C181.55,289.00 203.44,302.26 205.30,303.86 C207.03,305.34 207.01,305.49 204.80,307.18 C203.54,308.16 201.60,308.94 200.50,308.91 C198.64,308.87 198.66,308.79 200.75,307.78 C203.77,306.32 203.59,304.18 200.36,302.95 C198.91,302.40 196.46,300.94 194.92,299.72 C189.50,295.41 182.85,291.75 182.03,292.62 C181.58,293.11 181.05,298.67 180.86,305.00 C180.48,317.20 180.57,317.42 185.25,315.50 C188.11,314.33 187.24,316.43 184.10,318.28 ZM 286.00 381.09 C286.00,381.55 285.09,382.42 283.97,383.02 C282.18,383.97 281.77,383.68 280.47,380.58 C278.27,375.32 278.55,374.00 281.88,374.00 C284.30,374.00 284.85,374.49 285.38,377.12 C285.72,378.84 286.00,380.63 286.00,381.09 ZM 290.00 321.98 C290.00,323.98 291.54,322.86 294.50,318.71 C298.33,313.33 298.46,313.00 296.72,313.00 C295.27,313.00 290.00,320.04 290.00,321.98 ZM 380.86 305.33 C381.53,306.14 382.96,306.56 384.06,306.27 C385.62,305.87 385.80,305.46 384.90,304.38 C384.27,303.62 382.94,303.00 381.95,303.00 C380.96,303.00 379.42,302.28 378.55,301.40 C377.56,300.42 376.28,300.08 375.22,300.52 C373.79,301.12 374.02,301.46 376.57,302.55 C378.26,303.27 380.19,304.52 380.86,305.33 ZM 364.25 297.34 C366.23,298.14 370.00,298.07 370.00,297.24 C370.00,295.88 366.12,294.02 364.54,294.62 C362.68,295.34 362.54,296.65 364.25,297.34 ZM 389.56 312.43 C392.31,314.46 393.84,312.58 391.52,310.02 C390.51,308.91 389.12,308.00 388.43,308.00 C386.60,308.00 387.30,310.77 389.56,312.43 ZM 285.59 329.35 C285.09,331.44 285.25,332.08 286.21,331.77 C288.15,331.13 290.11,326.71 288.96,325.56 C287.70,324.30 286.45,325.71 285.59,329.35 ZM 373.48 417.97 C374.22,419.17 377.76,418.06 378.39,416.43 C378.68,415.68 378.56,414.84 378.12,414.57 C377.01,413.89 372.85,416.95 373.48,417.97 ZM 282.23 339.00 C281.98,342.33 282.04,342.40 283.51,340.52 C285.16,338.41 285.15,336.02 283.50,335.70 C282.95,335.59 282.38,337.08 282.23,339.00 ZM 309.63 304.30 C309.98,304.65 311.16,304.45 312.27,303.86 C313.79,303.04 313.96,302.59 312.98,301.99 C310.71,300.58 307.88,302.54 309.63,304.30 ZM 317.02 300.01 C318.41,300.87 321.00,300.25 321.00,299.06 C321.00,297.50 319.65,297.12 317.73,298.14 C316.21,298.96 316.04,299.41 317.02,300.01 ZM 400.00 393.06 C400.00,394.19 400.45,394.84 401.00,394.50 C401.55,394.16 402.00,393.23 402.00,392.44 C402.00,391.65 401.55,391.00 401.00,391.00 C400.45,391.00 400.00,391.93 400.00,393.06 ZM 281.68 379.60 C282.06,380.60 282.61,380.79 283.25,380.15 C284.39,379.01 283.28,376.71 281.97,377.52 C281.49,377.82 281.35,378.75 281.68,379.60 Z" fill="rgb(143,36,175)"/>
<path d="M 184.28 318.17 C187.27,316.34 188.05,314.35 185.25,315.50 C180.57,317.42 180.48,317.20 180.86,305.00 C181.05,298.67 181.58,293.11 182.03,292.62 C182.85,291.75 189.50,295.41 194.92,299.72 C196.46,300.94 198.91,302.40 200.36,302.95 C203.59,304.18 203.77,306.32 200.75,307.78 C198.66,308.79 198.64,308.87 200.50,308.91 C201.26,308.93 202.41,308.56 203.47,308.02 C201.56,309.21 200.00,310.39 200.00,310.65 C200.00,312.09 206.65,320.35 212.62,326.32 C221.66,335.36 232.59,342.51 244.63,347.44 C230.62,341.76 218.71,333.36 208.46,321.99 C205.73,318.95 202.76,315.35 201.86,313.99 C200.96,312.62 199.87,311.84 199.44,312.25 C199.01,312.67 199.61,314.02 200.77,315.25 C201.93,316.49 203.24,318.41 203.69,319.53 C205.10,323.05 222.40,338.12 228.94,341.52 C231.08,342.63 233.65,344.26 234.66,345.14 C235.67,346.02 237.62,346.99 239.00,347.31 C240.38,347.62 245.55,349.27 250.50,350.98 C260.48,354.43 267.12,355.75 280.50,356.95 C288.80,357.70 289.64,357.60 291.25,355.77 C292.21,354.67 293.00,352.54 293.00,351.02 C293.00,343.85 301.12,325.73 304.86,324.54 C305.88,324.22 307.82,322.40 309.17,320.51 C314.60,312.87 326.89,306.98 337.38,307.00 C340.07,307.00 344.02,306.47 346.17,305.83 C349.14,304.94 350.34,304.94 351.23,305.83 C351.87,306.47 353.55,307.00 354.95,307.01 C361.57,307.03 374.21,312.67 378.50,317.52 C379.05,318.14 380.25,319.06 381.17,319.57 C382.08,320.08 384.26,322.30 386.01,324.50 C388.84,328.06 389.12,329.00 388.60,333.00 C388.14,336.47 388.46,338.24 389.99,340.75 C391.08,342.54 392.64,344.00 393.46,344.00 C399.56,344.00 400.73,364.36 395.36,377.00 C391.53,386.02 387.36,392.94 384.88,394.41 C383.39,395.29 381.08,397.30 379.75,398.88 C376.07,403.26 370.30,406.63 361.50,409.54 C354.21,411.95 352.51,412.14 342.25,411.67 C333.45,411.28 330.30,410.74 327.75,409.19 C325.96,408.10 323.10,406.92 321.39,406.56 C319.68,406.20 317.39,404.91 316.31,403.70 C315.22,402.49 312.61,400.15 310.51,398.50 C308.40,396.85 306.12,395.05 305.44,394.50 C303.63,393.03 296.37,379.75 294.96,375.32 C293.54,370.85 293.03,368.77 291.72,367.81 C290.57,366.97 288.81,366.98 285.28,367.00 C284.76,367.00 284.20,367.00 283.59,367.00 C278.95,367.00 271.72,366.52 267.54,365.94 C259.11,364.77 240.24,358.88 235.38,355.91 C233.67,354.86 231.70,354.00 231.00,354.00 C230.31,354.00 227.11,352.20 223.88,350.00 C220.66,347.80 217.60,346.00 217.08,346.00 C215.50,346.00 194.33,324.48 191.50,320.00 C190.05,317.70 188.60,316.07 188.28,316.39 C187.90,316.76 188.60,318.23 190.07,320.37 C188.95,318.92 188.11,317.86 187.87,317.58 C187.44,317.10 186.04,317.34 184.28,318.17 ZM 239.18 437.04 C240.21,431.14 240.10,430.22 239.07,432.00 C238.60,432.83 237.71,436.42 237.11,440.00 C234.25,456.83 233.29,463.05 229.75,465.39 C227.59,466.82 224.46,466.80 219.34,466.88 C214.48,466.96 208.02,466.57 205.00,466.03 C201.98,465.50 195.90,464.54 191.50,463.91 C187.10,463.29 183.05,462.41 182.50,461.98 C181.95,461.54 178.92,460.71 175.76,460.13 C172.60,459.55 167.17,457.93 163.68,456.54 C160.20,455.14 156.80,454.00 156.14,454.00 C155.48,454.00 154.55,452.99 154.09,451.75 C153.42,449.97 153.98,448.45 156.77,444.50 C158.71,441.75 161.05,438.82 161.97,437.99 C162.88,437.16 165.24,434.01 167.19,430.99 C169.15,427.97 172.16,423.96 173.88,422.07 C175.59,420.18 177.00,418.31 177.00,417.91 C177.00,417.50 179.14,414.93 181.75,412.20 L 186.50 407.22 L 200.50 408.15 C208.20,408.66 220.57,408.95 228.00,408.79 L 241.50 408.50 L 241.45 411.50 C241.42,413.15 241.11,417.65 240.76,421.50 L 240.11 428.50 L 241.49 423.09 C241.68,422.32 241.86,421.56 242.03,420.82 C241.49,424.21 240.84,428.04 240.11,432.00 C239.80,433.69 239.49,435.38 239.18,437.04 ZM 406.96 347.32 C406.97,347.38 406.99,347.44 407.00,347.50 C407.76,350.49 407.76,350.48 407.88,346.75 C408.04,341.68 409.52,342.02 410.88,347.44 C412.39,353.45 412.29,356.68 410.56,357.34 C409.50,357.75 409.01,356.92 408.73,354.20 C408.51,352.16 408.33,354.10 408.33,358.50 C408.32,362.90 408.50,365.03 408.72,363.24 C409.07,360.41 409.32,360.17 410.56,361.42 C411.35,362.21 412.00,364.21 412.00,365.87 C412.00,368.89 407.74,383.23 406.03,385.97 C404.10,389.06 403.78,385.80 405.48,380.27 C406.46,377.10 407.40,372.70 407.58,370.50 L 407.91 366.50 L 407.05 370.51 C406.47,373.22 405.79,375.77 404.99,378.19 C406.56,372.85 407.31,367.06 407.38,360.50 C407.43,355.86 407.25,350.65 406.96,347.32 ZM 337.04 291.12 C339.49,290.90 342.11,290.77 344.74,290.72 C345.26,290.83 345.94,290.97 346.76,291.13 C349.65,291.69 351.77,292.57 351.45,293.08 C351.14,293.59 351.70,294.08 352.69,294.18 C353.69,294.27 349.33,294.69 343.00,295.10 C336.67,295.51 329.92,296.16 328.00,296.54 C321.22,297.88 330.03,293.38 337.50,291.69 C339.08,291.33 338.99,291.21 337.04,291.12 ZM 388.48 404.02 C384.64,408.13 384.00,409.38 384.96,410.27 C386.03,411.26 386.14,411.22 385.49,410.10 C385.01,409.24 385.08,408.93 385.68,409.30 C386.22,409.64 387.76,408.53 389.08,406.83 C393.00,401.84 397.23,397.89 397.89,398.61 C398.22,398.97 397.94,399.47 397.25,399.72 C396.56,399.97 396.00,400.95 396.00,401.90 C396.00,403.61 385.21,412.98 381.75,414.28 C380.11,414.90 380.10,414.78 381.61,412.47 C383.66,409.35 382.85,409.35 378.21,412.50 C377.03,413.31 374.96,414.41 372.74,415.46 C378.24,412.70 383.53,408.85 388.48,404.02 ZM 290.00 321.98 C290.00,320.04 295.27,313.00 296.72,313.00 C298.46,313.00 298.33,313.33 294.50,318.71 C291.54,322.86 290.00,323.98 290.00,321.98 ZM 380.86 305.33 C380.19,304.52 378.26,303.27 376.57,302.55 C374.02,301.46 373.79,301.12 375.22,300.52 C376.28,300.08 377.56,300.42 378.55,301.40 C379.42,302.28 380.96,303.00 381.95,303.00 C382.94,303.00 384.27,303.62 384.90,304.38 C385.80,305.46 385.62,305.87 384.06,306.27 C382.96,306.56 381.53,306.14 380.86,305.33 ZM 364.25 297.34 C362.54,296.65 362.68,295.34 364.54,294.62 C366.12,294.02 370.00,295.88 370.00,297.24 C370.00,298.07 366.23,298.14 364.25,297.34 ZM 389.56 312.43 C387.30,310.77 386.60,308.00 388.43,308.00 C389.12,308.00 390.51,308.91 391.52,310.02 C393.84,312.58 392.31,314.46 389.56,312.43 ZM 285.59 329.35 C286.45,325.71 287.70,324.30 288.96,325.56 C290.11,326.71 288.15,331.13 286.21,331.77 C285.25,332.08 285.09,331.44 285.59,329.35 ZM 373.48 417.97 C372.85,416.95 377.01,413.89 378.12,414.57 C378.56,414.84 378.68,415.68 378.39,416.43 C377.76,418.06 374.22,419.17 373.48,417.97 ZM 282.23 339.00 C282.38,337.08 282.95,335.59 283.50,335.70 C285.15,336.02 285.16,338.41 283.51,340.52 C282.04,342.40 281.98,342.33 282.23,339.00 ZM 309.63 304.30 C307.88,302.54 310.71,300.58 312.98,301.99 C313.96,302.59 313.79,303.04 312.27,303.86 C311.16,304.45 309.98,304.65 309.63,304.30 ZM 317.02 300.01 C316.04,299.41 316.21,298.96 317.73,298.14 C319.65,297.12 321.00,297.50 321.00,299.06 C321.00,300.25 318.41,300.87 317.02,300.01 ZM 400.00 393.06 C400.00,391.93 400.45,391.00 401.00,391.00 C401.55,391.00 402.00,391.65 402.00,392.44 C402.00,393.23 401.55,394.16 401.00,394.50 C400.45,394.84 400.00,394.19 400.00,393.06 ZM 281.68 379.60 C281.35,378.75 281.49,377.82 281.97,377.52 C283.28,376.71 284.39,379.01 283.25,380.15 C282.61,380.79 282.06,380.60 281.68,379.60 ZM 194.05 325.59 C195.90,327.82 198.08,330.29 200.45,332.80 C208.04,340.83 216.60,347.59 225.99,353.01 C213.57,345.95 202.71,336.70 194.05,325.59 ZM 274.46 354.79 C276.78,355.01 279.12,355.16 281.47,355.23 L 289.79 355.48 C289.70,355.55 289.60,355.60 289.50,355.64 C288.18,356.14 281.56,355.67 274.46,354.79 ZM 340.63 304.51 C341.48,304.43 342.37,304.36 343.32,304.29 C349.24,303.84 355.15,304.47 360.82,306.10 C354.75,304.50 348.11,303.99 340.63,304.51 ZM 291.82 346.91 C292.99,341.52 294.99,336.37 297.72,331.62 C295.34,336.23 293.01,342.29 291.82,346.91 ZM 312.91 298.73 C317.98,295.95 323.40,293.78 329.00,292.36 C329.43,292.25 329.89,292.15 330.36,292.05 C325.62,293.22 319.69,295.40 314.26,298.05 C313.81,298.27 313.36,298.50 312.91,298.73 ZM 304.55 322.19 C308.58,317.72 313.35,313.88 318.72,310.89 C313.67,313.89 308.66,317.86 304.55,322.19 ZM 352.68 290.87 C355.90,291.05 358.81,291.40 361.00,291.91 C364.63,292.76 368.88,294.38 373.13,296.40 C365.31,292.81 360.78,291.58 352.68,290.87 ZM 242.93 406.88 C241.99,405.98 239.36,406.00 229.86,406.85 C229.21,406.90 228.56,406.96 227.92,407.01 L 228.00 407.00 C239.01,405.90 241.89,405.70 242.93,406.88 ZM 218.44 407.44 C214.15,407.47 209.90,407.28 205.00,406.85 C196.70,406.12 192.08,405.74 189.27,405.78 C192.10,405.72 196.72,406.09 205.00,406.79 C209.97,407.22 214.40,407.43 218.44,407.44 ZM 281.24 335.22 C281.50,334.47 281.78,333.74 282.05,333.03 C283.21,330.02 284.64,327.09 286.29,324.27 C284.44,327.60 282.66,331.48 281.24,335.22 ZM 235.46 458.26 C235.08,460.88 233.89,464.14 232.82,465.51 C233.89,464.14 235.07,460.88 235.44,458.26 C235.81,455.64 236.99,448.86 238.06,443.20 C238.16,442.64 238.26,442.10 238.36,441.58 C236.91,449.64 235.73,456.36 235.46,458.26 ZM 388.34 305.42 C392.34,308.42 395.00,311.22 395.00,313.01 C395.00,311.41 392.29,308.49 388.34,305.42 ZM 411.92 342.18 C411.16,340.22 410.07,339.50 408.58,339.74 C410.45,339.41 411.04,339.80 411.92,342.18 ZM 408.43 339.77 C407.12,340.03 406.40,340.54 406.19,341.72 C406.15,340.29 406.72,340.09 408.38,339.78 ZM 365.75 418.43 C362.54,419.84 361.01,421.06 360.25,422.70 C359.66,423.98 359.16,425.28 359.03,425.87 C359.16,425.28 359.66,423.96 360.25,422.68 C361.04,420.96 362.58,419.74 365.75,418.43 ZM 290.62 354.26 L 291.02 351.55 C291.02,351.63 291.01,351.71 291.01,351.78 C291.01,352.74 290.87,353.59 290.62,354.26 ZM 178.89 309.21 C178.96,307.90 179.04,306.49 179.14,305.00 C180.14,290.37 180.22,289.12 180.61,289.01 C180.64,289.00 180.68,289.00 180.72,289.00 C180.68,289.00 180.65,289.00 180.62,289.01 C180.21,289.12 180.13,290.42 179.15,305.00 C179.06,306.45 178.97,307.87 178.89,309.21 ZM 183.90 407.58 C182.79,408.62 175.94,417.10 168.84,426.09 C175.98,417.04 182.87,408.50 183.86,407.61 ZM 412.48 344.07 C412.36,343.53 412.23,343.05 412.08,342.61 C412.11,342.71 412.14,342.80 412.18,342.89 C412.28,343.20 412.38,343.59 412.48,344.07 ZM 185.21 291.41 C183.73,290.54 182.50,289.85 181.71,289.43 C182.51,289.85 183.73,290.54 185.21,291.41 ZM 243.55 408.65 C243.53,408.43 243.50,408.23 243.46,408.05 C243.48,408.11 243.50,408.18 243.52,408.25 C243.54,408.34 243.55,408.47 243.55,408.65 ZM 258.87 352.11 C259.13,352.17 259.39,352.24 259.64,352.30 C259.38,352.24 259.12,352.17 258.87,352.11 Z" fill="rgb(164,16,205)"/>
<path d="M 141.00 294.03 C141.00,295.12 136.27,295.11 131.00,294.00 L 127.50 293.26 L 131.87 293.13 C135.64,293.02 136.07,292.79 135.00,291.50 C134.32,290.67 134.06,290.00 134.43,290.00 C135.91,290.00 141.00,293.12 141.00,294.03 ZM 425.66 328.45 C425.33,329.30 424.39,330.00 423.56,330.00 C422.62,330.00 422.28,329.42 422.65,328.46 C422.98,327.62 422.48,326.09 421.56,325.06 C419.01,322.25 421.36,321.69 423.98,324.48 C425.29,325.87 426.00,327.56 425.66,328.45 ZM 172.50 302.00 C171.50,303.10 170.41,304.00 170.06,304.00 C169.71,304.00 169.43,303.10 169.43,302.00 C169.43,300.55 170.10,300.00 171.87,300.00 C174.25,300.00 174.26,300.05 172.50,302.00 Z" fill="rgb(224,207,102)"/>
<path d="M 118.68 433.71 C114.84,435.85 113.36,435.28 102.30,427.35 C91.39,419.53 79.76,408.88 72.65,400.19 C72.45,399.94 72.25,399.69 72.05,399.46 C68.85,395.54 66.90,393.17 67.09,390.99 C67.39,387.48 73.17,384.45 88.00,376.33 C101.99,368.67 109.55,365.09 111.79,365.05 C114.45,365.01 116.52,366.25 122.48,371.45 C130.73,378.64 140.00,385.02 150.50,390.73 C154.69,393.00 157.30,394.40 157.75,396.31 C158.47,399.43 153.38,403.90 139.83,415.82 L 139.48 416.12 C129.24,425.13 119.88,433.05 118.68,433.71 ZM 127.22 327.18 C123.52,329.14 115.68,333.30 109.80,336.43 L 99.10 342.10 L 95.60 337.30 C88.55,327.61 72.99,294.92 75.07,294.17 C76.04,293.82 119.68,298.77 121.64,299.46 C122.27,299.68 123.91,302.30 125.28,305.29 C126.65,308.29 129.36,313.10 131.31,315.99 C133.25,318.88 134.64,321.78 134.39,322.43 C134.14,323.08 130.91,325.22 127.22,327.18 ZM 119.97 274.94 C120.82,276.53 120.77,277.00 119.77,277.00 C118.12,277.00 113.56,273.91 103.43,265.83 C111.57,272.29 115.60,274.98 117.08,274.99 C117.40,275.00 117.67,274.23 117.67,273.29 C117.67,272.51 114.81,269.00 110.94,264.96 C115.55,269.66 119.43,273.94 119.97,274.94 ZM 106.99 260.96 C100.91,254.74 96.49,249.05 93.01,242.89 C96.43,248.93 100.79,254.52 106.99,260.96 Z" fill="rgb(245,5,4)"/>
<path d="M 141.00 294.03 C141.00,293.12 135.91,290.00 134.43,290.00 C134.06,290.00 134.32,290.67 135.00,291.50 C135.18,291.72 135.32,291.91 135.41,292.07 C135.22,291.80 134.91,291.45 134.50,291.00 C133.12,289.48 133.03,289.00 134.10,289.02 C136.19,289.04 143.32,293.35 143.18,294.50 C143.01,295.95 139.27,295.95 133.00,294.48 L 130.51 293.90 L 131.00 294.00 C136.27,295.11 141.00,295.12 141.00,294.03 ZM 133.70 293.05 C133.20,293.08 132.60,293.11 131.87,293.13 L 127.77 293.26 L 127.50 293.19 L 131.90 293.10 C132.61,293.08 133.21,293.07 133.70,293.05 Z" fill="rgb(250,236,181)"/>
<path d="M 80.50 351.30 C67.85,357.67 56.60,363.10 55.50,363.36 C50.98,364.41 48.15,362.05 42.63,352.67 C35.94,341.29 26.00,320.58 26.00,318.02 C26.00,314.16 30.81,310.90 48.86,302.52 C64.40,295.31 68.01,294.00 72.36,294.00 C72.92,294.00 73.90,294.05 75.21,294.15 C75.14,294.15 75.09,294.16 75.07,294.17 C72.99,294.92 88.55,327.61 95.60,337.30 L 98.95 341.91 C92.75,345.09 86.52,348.26 80.50,351.30 ZM 106.81 289.75 C107.19,291.15 105.12,291.18 95.00,289.94 C91.43,289.50 82.23,288.43 74.57,287.56 C66.92,286.69 60.41,285.74 60.11,285.45 C59.82,285.15 59.56,275.47 59.54,263.92 C59.49,239.72 59.70,239.13 66.42,244.34 C68.66,246.08 70.72,247.73 71.00,248.00 C71.28,248.27 78.18,253.85 86.34,260.39 C94.50,266.93 101.53,273.23 101.97,274.39 C102.71,276.34 106.03,286.88 106.81,289.75 ZM 127.22 327.18 C130.91,325.22 134.14,323.08 134.39,322.43 C134.64,321.78 133.25,318.88 131.31,315.99 C129.36,313.10 126.65,308.29 125.28,305.29 C123.91,302.30 122.27,299.68 121.64,299.46 C121.35,299.36 120.15,299.16 118.30,298.90 C141.77,301.71 146.45,302.16 151.04,301.70 C152.33,301.58 153.61,301.38 155.29,301.14 C159.81,300.51 165.92,300.00 168.87,300.00 C169.82,300.00 170.60,300.01 171.23,300.03 C169.93,300.16 169.43,300.74 169.43,302.00 C169.43,302.88 169.61,303.63 169.86,303.90 C169.43,304.14 169.00,304.38 168.58,304.57 C166.89,305.38 162.95,307.55 159.84,309.40 C153.80,313.01 140.06,320.45 123.72,329.04 C125.09,328.31 126.28,327.68 127.22,327.18 ZM 172.50 302.00 C172.83,301.63 173.11,301.33 173.31,301.08 C173.22,301.22 173.10,301.38 172.95,301.56 C172.81,301.73 172.62,301.92 172.39,302.12 C172.43,302.08 172.46,302.04 172.50,302.00 Z" fill="rgb(250,134,7)"/>
<path d="M 407.68 334.56 C395.94,338.22 395.32,337.97 397.08,330.32 C402.30,307.77 403.15,306.02 407.15,309.63 C409.19,311.48 409.26,311.45 412.51,307.70 C416.48,303.11 424.00,288.40 424.00,285.22 C424.00,283.96 423.44,282.79 422.75,282.61 C396.20,275.62 379.13,254.47 379.05,228.50 C378.99,209.01 388.73,191.38 405.01,181.50 C411.64,177.47 414.15,177.03 422.21,178.52 C425.53,179.14 426.23,178.87 428.86,176.00 C431.67,172.91 432.00,172.81 437.15,173.49 C454.25,175.75 462.78,179.66 473.06,189.94 C484.56,201.45 488.97,212.08 488.99,228.39 C489.01,244.76 483.55,256.71 470.47,268.90 C463.14,275.74 455.61,279.72 445.74,282.00 C442.57,282.73 439.58,283.81 439.11,284.41 C438.63,285.01 436.53,289.77 434.44,295.00 C430.53,304.76 426.43,312.30 422.26,317.39 L 419.89 320.29 L 423.08 323.58 C423.16,323.67 423.25,323.76 423.34,323.85 C421.00,321.80 419.23,322.49 421.56,325.06 C422.48,326.09 422.98,327.62 422.65,328.46 C422.34,329.28 422.54,329.82 423.19,329.96 C422.35,330.32 421.36,330.65 420.34,330.91 C417.68,331.58 411.98,333.22 407.68,334.56 ZM 64.24 242.73 C59.65,239.63 59.50,242.66 59.54,263.92 C59.56,275.47 59.82,285.15 60.11,285.45 C60.41,285.74 66.92,286.69 74.57,287.56 C77.96,287.95 81.64,288.37 85.00,288.76 C70.68,287.18 66.66,286.70 61.50,286.01 C57.65,285.49 50.00,284.58 44.50,283.99 C17.03,281.02 14.90,280.55 13.02,277.03 C12.45,275.98 11.30,266.00 10.46,254.86 L 8.94 234.61 L 11.39 232.15 L 13.85 229.70 L 53.14 234.30 L 61.82 240.88 C62.65,241.52 63.47,242.14 64.24,242.73 ZM 458.50 292.16 C444.31,297.80 439.91,298.02 441.49,293.04 C442.13,291.00 443.06,290.59 449.43,289.51 C451.60,289.14 456.32,287.35 459.93,285.53 C483.52,273.65 497.00,252.95 497.00,228.59 C497.00,217.19 495.60,211.02 490.87,201.54 C485.98,191.71 482.26,186.80 475.32,181.02 C463.91,171.51 454.05,167.44 439.50,166.24 C430.76,165.52 430.50,165.43 430.50,163.00 C430.50,160.51 430.54,160.50 439.28,160.65 C465.95,161.12 492.13,181.56 499.91,208.00 C500.64,210.48 501.63,213.80 502.12,215.40 C502.60,216.99 503.00,222.51 503.00,227.67 C503.00,245.83 496.24,262.28 483.39,275.39 C474.33,284.62 469.79,287.68 458.50,292.16 ZM 415.42 291.36 C414.46,293.85 410.21,293.32 403.55,289.89 C382.72,279.13 369.35,260.45 366.00,237.40 C363.33,219.14 369.36,198.38 381.71,183.31 C386.80,177.10 396.58,170.00 400.04,170.00 C405.34,170.00 404.78,172.26 398.50,176.24 C382.96,186.09 372.90,204.37 371.32,225.59 C369.95,244.09 378.68,264.04 393.67,276.63 C396.37,278.91 402.39,282.67 407.04,285.00 C414.16,288.56 415.79,289.26 415.85,290.08 C415.87,290.31 415.76,290.55 415.62,290.88 C415.56,291.02 415.49,291.18 415.42,291.36 ZM 133.70 293.05 C133.21,293.07 132.61,293.08 131.90,293.10 L 127.50 293.19 L 127.77 293.26 L 127.50 293.26 L 130.51 293.90 L 132.25 294.30 C127.85,293.55 119.55,292.54 103.85,290.82 C106.42,290.92 107.03,290.57 106.81,289.75 C106.03,286.88 102.71,276.34 101.97,274.39 C101.62,273.46 97.00,269.20 90.95,264.16 C98.20,269.89 105.14,275.30 107.33,276.84 C115.44,282.56 129.39,289.32 132.87,289.22 C133.03,289.22 133.20,289.22 133.39,289.24 C133.28,289.51 133.64,290.05 134.50,291.00 C134.91,291.45 135.22,291.80 135.41,292.07 C135.73,292.68 135.32,292.92 133.70,293.05 ZM 142.15 295.40 C140.78,295.84 138.25,295.75 135.73,295.06 C138.75,295.62 140.95,295.73 142.15,295.40 ZM 143.18 294.50 C143.25,293.96 141.71,292.72 139.85,291.56 C141.78,292.62 143.27,293.79 143.18,294.50 ZM 425.69 328.35 C425.75,328.13 425.76,327.88 425.72,327.59 C425.78,327.87 425.79,328.11 425.72,328.28 C425.71,328.30 425.70,328.33 425.69,328.35 ZM 71.00 247.98 C71.04,248.03 71.10,248.08 71.16,248.14 C71.08,248.07 71.02,248.02 71.00,248.00 C70.92,247.92 70.68,247.72 70.33,247.43 C70.71,247.73 70.94,247.92 71.00,247.98 Z" fill="rgb(251,222,9)"/>
<path d="M 0.00 256.00 L 0.00 0.00 L 256.00 0.00 L 512.00 0.00 L 512.00 256.00 L 512.00 512.00 L 256.00 512.00 L 0.00 512.00 L 0.00 256.00 ZM 232.81 465.51 C233.89,464.14 235.08,460.88 235.46,458.26 C235.84,455.64 237.93,443.83 240.11,432.00 C242.29,420.17 243.82,409.49 243.52,408.25 C242.88,405.65 242.15,405.59 228.00,407.00 C221.53,407.65 214.20,407.58 205.00,406.79 C187.57,405.30 186.38,405.35 183.86,407.61 C182.00,409.28 159.21,438.10 153.22,446.36 C148.80,452.45 151.31,454.79 167.50,459.66 C186.45,465.36 201.04,467.73 218.18,467.89 C230.56,468.00 230.90,467.94 232.81,465.51 ZM 283.25 461.54 C299.55,456.82 318.63,448.20 332.44,439.31 C341.05,433.77 353.00,424.26 353.00,422.96 C353.00,422.43 349.74,421.99 345.75,421.98 C338.55,421.97 327.86,419.71 320.84,416.73 C308.91,411.67 296.79,400.29 289.40,387.20 C289.04,386.56 270.99,397.35 269.30,399.22 C267.64,401.06 267.52,403.46 267.82,430.86 C268.13,459.25 268.23,460.57 270.18,462.25 C272.79,464.49 273.15,464.47 283.25,461.54 ZM 118.68 433.71 C119.88,433.05 129.24,425.13 139.48,416.12 C161.66,396.63 161.60,396.76 150.50,390.73 C140.00,385.02 130.73,378.64 122.48,371.45 C116.52,366.25 114.45,365.01 111.79,365.05 C109.55,365.09 101.99,368.67 88.00,376.33 C63.35,389.83 63.71,389.26 72.65,400.19 C79.76,408.88 91.39,419.53 102.30,427.35 C113.36,435.28 114.84,435.85 118.68,433.71 ZM 374.70 420.95 C392.16,412.42 404.95,397.54 410.74,379.00 C412.99,371.80 413.39,368.67 413.40,358.50 C413.41,351.54 412.89,344.98 412.18,342.89 C411.11,339.77 410.59,339.35 408.38,339.78 C405.91,340.25 405.85,340.45 406.66,344.88 C407.12,347.42 407.45,354.45 407.38,360.50 C407.20,377.60 402.39,389.46 390.57,401.90 C383.47,409.38 375.59,414.78 367.37,417.80 C363.08,419.38 361.16,420.69 360.25,422.68 C359.56,424.17 359.00,425.71 359.00,426.10 C359.00,427.20 367.86,424.29 374.70,420.95 ZM 358.29 412.51 C371.93,408.96 385.93,398.80 392.39,387.77 C398.60,377.18 401.45,363.41 399.84,351.77 C398.75,343.94 397.78,342.00 394.93,342.00 C391.66,342.00 389.96,338.17 390.65,332.33 L 391.27 327.06 L 384.38 320.18 C373.08,308.89 358.24,303.15 343.32,304.29 C331.79,305.17 328.76,305.89 321.36,309.51 C305.17,317.42 293.78,332.84 291.20,350.32 L 290.44 355.50 L 281.47 355.23 C255.15,354.43 230.29,343.99 212.62,326.32 C206.65,320.35 200.00,312.09 200.00,310.65 C200.00,310.38 201.59,309.18 203.54,307.98 C206.22,306.32 206.81,305.48 206.01,304.51 C205.03,303.33 181.69,289.00 180.74,289.00 C180.23,289.00 180.24,288.85 179.14,305.00 C178.59,313.07 178.59,318.89 179.13,319.47 C179.71,320.08 181.31,319.75 183.55,318.55 C185.63,317.42 187.38,317.03 187.87,317.58 C188.31,318.08 190.72,321.20 193.22,324.50 C213.01,350.63 244.92,366.76 280.64,368.69 L 291.79 369.29 L 292.34 372.72 C293.44,379.46 300.09,390.98 306.73,397.62 C313.33,404.22 325.04,410.88 333.50,412.86 C339.74,414.32 352.01,414.15 358.29,412.51 ZM 286.00 381.09 C286.00,380.63 285.72,378.84 285.38,377.12 C284.85,374.49 284.30,374.00 281.88,374.00 C278.55,374.00 278.27,375.32 280.47,380.58 C281.77,383.68 282.18,383.97 283.97,383.02 C285.09,382.42 286.00,381.55 286.00,381.09 ZM 80.50 351.30 C111.92,335.46 148.78,316.00 159.84,309.40 C162.95,307.55 166.89,305.38 168.58,304.57 C170.27,303.77 172.24,302.41 172.95,301.56 C174.10,300.18 173.62,300.00 168.87,300.00 C165.92,300.00 159.81,300.51 155.29,301.14 C146.44,302.38 148.77,302.56 102.50,297.01 C88.75,295.35 75.19,294.00 72.36,294.00 C68.01,294.00 64.40,295.31 48.86,302.52 C30.81,310.90 26.00,314.16 26.00,318.02 C26.00,320.58 35.94,341.29 42.63,352.67 C48.15,362.05 50.98,364.41 55.50,363.36 C56.60,363.10 67.85,357.67 80.50,351.30 ZM 283.77 347.50 C284.11,343.39 287.96,332.87 291.27,327.00 C296.39,317.92 307.13,307.98 317.00,303.19 C341.34,291.37 367.91,294.87 387.65,312.49 C393.91,318.08 395.00,318.15 395.00,313.01 C395.00,307.98 373.99,294.94 361.00,291.91 C353.34,290.13 336.90,290.36 329.00,292.36 C307.92,297.71 289.53,313.64 282.05,333.03 C280.35,337.44 278.68,343.07 278.34,345.53 C277.74,349.94 277.77,350.00 280.65,350.00 C283.04,350.00 283.60,349.55 283.77,347.50 ZM 407.68 334.56 C411.98,333.22 417.68,331.58 420.34,330.91 C423.00,330.24 425.43,329.05 425.72,328.28 C426.02,327.50 424.84,325.40 423.08,323.58 L 419.89 320.29 L 422.26 317.39 C426.43,312.30 430.53,304.76 434.44,295.00 C436.53,289.77 438.63,285.01 439.11,284.41 C439.58,283.81 442.57,282.73 445.74,282.00 C455.61,279.72 463.14,275.74 470.47,268.90 C483.55,256.71 489.01,244.76 488.99,228.39 C488.97,212.08 484.56,201.45 473.06,189.94 C462.78,179.66 454.25,175.75 437.15,173.49 C432.00,172.81 431.67,172.91 428.86,176.00 C426.23,178.87 425.53,179.14 422.21,178.52 C414.15,177.03 411.64,177.47 405.01,181.50 C388.73,191.38 378.99,209.01 379.05,228.50 C379.13,254.47 396.20,275.62 422.75,282.61 C423.44,282.79 424.00,283.96 424.00,285.22 C424.00,288.40 416.48,303.11 412.51,307.70 C409.26,311.45 409.19,311.48 407.15,309.63 C403.15,306.02 402.30,307.77 397.08,330.32 C395.32,337.97 395.94,338.22 407.68,334.56 ZM 212.94 296.89 C228.09,287.66 242.29,266.81 245.85,248.58 C247.61,239.54 247.28,224.30 245.13,215.30 C242.93,206.09 237.48,194.61 231.84,187.30 C226.83,180.80 215.98,171.45 210.19,168.64 C205.89,166.55 205.81,166.55 204.41,168.45 C201.90,171.88 202.79,173.75 208.75,177.66 C231.00,192.25 242.80,220.16 237.58,245.89 C236.66,250.45 235.55,254.93 235.11,255.84 C227.38,272.09 222.61,278.67 213.16,286.09 C209.37,289.07 205.43,292.05 204.39,292.72 C202.60,293.87 202.65,294.06 205.50,296.46 C209.11,299.51 208.70,299.48 212.94,296.89 ZM 458.50 292.16 C469.79,287.68 474.33,284.62 483.39,275.39 C496.24,262.28 503.00,245.83 503.00,227.67 C503.00,222.51 502.60,216.99 502.12,215.40 C501.63,213.80 500.64,210.48 499.91,208.00 C492.13,181.56 465.95,161.12 439.28,160.65 C430.54,160.50 430.50,160.51 430.50,163.00 C430.50,165.43 430.76,165.52 439.50,166.24 C454.05,167.44 463.91,171.51 475.32,181.02 C482.26,186.80 485.98,191.71 490.87,201.54 C495.60,211.02 497.00,217.19 497.00,228.59 C497.00,252.95 483.52,273.65 459.93,285.53 C456.32,287.35 451.60,289.14 449.43,289.51 C443.06,290.59 442.13,291.00 441.49,293.04 C439.91,298.02 444.31,297.80 458.50,292.16 ZM 143.18 294.50 C143.37,292.94 135.93,289.14 132.87,289.22 C129.39,289.32 115.44,282.56 107.33,276.84 C102.35,273.33 72.88,249.93 71.00,247.98 C70.72,247.70 66.59,244.51 61.82,240.88 L 53.14 234.30 L 33.49 232.00 L 13.85 229.70 L 11.39 232.15 L 8.94 234.61 L 10.46 254.86 C11.30,266.00 12.45,275.98 13.02,277.03 C14.90,280.55 17.03,281.02 44.50,283.99 C50.00,284.58 57.65,285.49 61.50,286.01 C68.20,286.91 73.00,287.46 101.00,290.51 C124.16,293.03 132.49,294.12 135.50,294.99 C139.22,296.07 143.02,295.83 143.18,294.50 ZM 415.42 291.36 C416.19,289.34 417.09,290.03 407.04,285.00 C402.39,282.67 396.37,278.91 393.67,276.63 C378.68,264.04 369.95,244.09 371.32,225.59 C372.90,204.37 382.96,186.09 398.50,176.24 C404.78,172.26 405.34,170.00 400.04,170.00 C396.58,170.00 386.80,177.10 381.71,183.31 C369.36,198.38 363.33,219.14 366.00,237.40 C369.35,260.45 382.72,279.13 403.55,289.89 C410.21,293.32 414.46,293.85 415.42,291.36 ZM 172.80 290.80 C173.46,290.14 174.00,288.81 174.00,287.84 C174.00,283.68 181.57,282.80 187.97,286.22 L 192.14 288.44 L 197.44 285.66 C210.05,279.06 220.57,267.58 225.74,254.78 C232.77,237.39 230.68,216.55 220.45,201.92 C215.09,194.25 205.40,185.28 199.29,182.32 C191.80,178.70 191.60,178.24 194.77,171.93 C202.28,156.98 214.66,144.42 231.60,134.55 C239.54,129.93 241.71,129.91 242.57,134.50 C242.93,136.43 243.56,138.00 243.97,138.00 C245.30,138.00 263.00,119.02 263.00,117.58 C263.00,116.25 258.70,114.70 243.22,110.45 C239.77,109.50 236.70,108.97 236.40,109.27 C236.10,109.57 236.30,111.41 236.83,113.36 C237.97,117.47 237.90,117.56 230.00,121.52 C216.76,128.17 203.52,138.70 195.00,149.36 C192.52,152.45 188.02,159.60 184.99,165.24 L 179.48 175.50 L 168.49 176.13 C156.00,176.86 154.35,177.28 144.02,182.49 C123.39,192.88 110.75,217.09 114.00,239.98 C116.92,260.61 128.31,277.08 145.50,285.54 C156.93,291.16 169.93,293.67 172.80,290.80 ZM 119.97 274.94 C119.36,273.81 114.46,268.47 109.08,263.08 C99.05,253.03 93.48,245.22 89.24,235.20 C85.69,226.83 69.94,185.08 68.79,181.00 C65.82,170.46 64.56,168.93 51.69,160.25 C38.61,151.43 34.02,150.00 30.82,153.75 C30.00,154.71 26.33,162.61 22.66,171.31 C14.45,190.80 14.11,194.11 19.84,199.13 C21.95,200.99 26.95,204.98 30.96,208.00 C34.96,211.02 39.93,214.85 42.00,216.50 C44.07,218.15 50.84,223.55 57.05,228.50 C72.14,240.54 83.24,249.47 98.12,261.55 C112.02,272.84 117.85,277.00 119.77,277.00 C120.77,277.00 120.82,276.53 119.97,274.94 ZM 106.73 247.75 C106.19,245.41 104.51,240.80 103.01,237.50 C100.25,231.44 98.60,225.27 97.53,216.98 C97.03,213.11 100.47,179.10 105.08,142.34 C107.32,124.54 107.28,124.31 98.93,106.50 C92.29,92.34 91.13,90.46 88.84,90.20 C86.81,89.96 83.31,92.23 72.87,100.56 C54.23,115.42 54.00,115.66 54.00,120.16 C54.00,124.02 61.90,146.98 68.58,162.53 C69.30,164.19 71.54,170.27 73.56,176.03 C75.59,181.79 77.64,186.93 78.12,187.45 C78.61,187.97 79.00,189.03 79.00,189.81 C79.00,191.63 94.60,233.29 97.18,238.34 C99.66,243.22 105.95,252.00 106.95,252.00 C107.38,252.00 107.28,250.09 106.73,247.75 ZM 106.01 220.75 C106.04,216.28 111.79,202.09 116.34,195.24 C127.37,178.65 145.81,168.31 166.29,167.24 C174.75,166.80 176.27,166.45 177.54,164.64 C178.34,163.49 179.00,161.53 179.00,160.28 C179.00,158.14 178.60,158.00 172.50,158.00 L 166.00 158.00 L 165.99 136.25 C165.97,81.70 165.57,67.97 164.00,66.92 C162.53,65.93 160.20,66.07 145.00,68.00 C126.31,70.39 122.42,71.35 121.04,73.93 C120.51,74.92 119.18,83.10 118.08,92.11 C116.99,101.13 115.87,110.07 115.59,112.00 C113.92,123.73 111.69,141.23 109.49,160.00 C108.10,171.82 106.53,184.20 106.00,187.50 C104.08,199.44 102.99,213.46 103.62,218.18 C104.26,223.05 105.99,224.90 106.01,220.75 ZM 331.82 181.96 C346.03,179.65 360.64,171.53 371.19,160.07 C379.24,151.33 382.92,144.81 381.06,142.58 C380.34,141.71 379.39,141.00 378.95,141.00 C378.51,141.00 376.10,144.09 373.58,147.88 C365.30,160.33 355.63,168.09 341.37,173.71 C335.07,176.19 333.35,176.41 320.50,176.42 C307.00,176.44 306.20,176.32 298.27,173.15 C283.36,167.21 270.49,155.47 263.52,141.45 C261.35,137.08 259.43,133.30 259.26,133.06 C259.09,132.81 258.04,133.51 256.94,134.62 L 254.93 136.63 L 258.94 144.64 C272.23,171.19 302.55,186.71 331.82,181.96 ZM 424.32 158.80 C423.98,151.28 423.36,144.58 422.95,143.92 C422.40,143.03 421.24,143.30 418.54,144.98 L 414.88 147.24 L 406.19 138.79 C397.53,130.36 389.76,124.61 380.75,119.96 C376.29,117.65 376.00,117.26 375.98,113.50 C375.95,106.56 373.16,95.77 369.43,88.19 C363.04,75.21 350.14,64.64 335.59,60.46 C328.14,58.32 308.95,58.91 302.00,61.48 C283.75,68.25 269.09,84.95 265.81,102.73 C264.67,108.85 264.70,108.99 267.33,111.43 C270.62,114.48 270.82,118.68 267.87,122.44 C265.92,124.92 265.84,125.53 266.98,129.33 C271.13,143.20 282.80,156.88 296.00,163.35 C312.85,171.61 329.25,171.45 346.24,162.88 C354.41,158.75 364.69,148.25 369.35,139.25 C371.51,135.08 373.75,132.00 374.63,132.00 C377.27,132.00 389.23,140.46 396.50,147.47 L 403.49 154.23 L 400.25 156.94 C398.46,158.43 397.00,159.98 397.00,160.39 C397.00,161.53 423.40,173.89 424.22,173.13 C424.61,172.77 424.66,166.32 424.32,158.80 ZM 389.13 107.66 C386.01,82.16 372.68,62.86 350.50,51.73 C338.75,45.83 318.36,43.69 304.50,46.88 C290.39,50.14 273.65,60.93 265.06,72.30 C257.76,81.97 250.55,100.77 252.34,105.45 C252.67,106.30 253.78,107.00 254.81,107.00 C256.32,107.00 257.08,105.37 258.81,98.35 C261.67,86.78 267.61,76.56 276.17,68.48 C283.85,61.23 289.51,57.67 298.88,54.21 C307.85,50.89 326.41,49.98 336.00,52.39 C353.76,56.85 368.99,69.02 376.84,85.03 C380.89,93.29 384.00,104.76 384.00,111.44 C384.00,114.87 387.61,118.65 389.34,117.02 C389.80,116.58 389.71,112.37 389.13,107.66 Z" fill="rgb(253,254,253)"/>
</g>
</svg>